<svg id="Flat" height="512" viewBox="0 0 512 512" width="512" xmlns="http://www.w3.org/2000/svg"><g><g><rect fill="#c85aed" height="464" rx="10" width="336" x="24" y="24"/><circle cx="192" cy="288" fill="#fa5d3f" r="120"/><circle cx="192" cy="288" fill="#fdf8ff" r="88"/><path d="m66 440h60a10 10 0 0 1 10 10v38a0 0 0 0 1 0 0h-80a0 0 0 0 1 0 0v-38a10 10 0 0 1 10-10z" fill="#fed672"/><path d="m24 112h336v16h-336z" fill="#dea3f7"/><circle cx="192" cy="72" fill="#fed672" r="24"/><g fill="#fdf8ff"><path d="m136 80h16v16h-16z"/><path d="m136 48h16v16h-16z"/><path d="m232 80h16v16h-16z"/><path d="m232 48h16v16h-16z"/></g><path d="m264 48h72v48h-72z" fill="#fed672"/><path d="m56 56h64a0 0 0 0 1 0 0v12a20 20 0 0 1 -20 20h-24a20 20 0 0 1 -20-20v-12a0 0 0 0 1 0 0z" fill="#fed672"/><path d="m88 440h16v24h-16z" fill="#ffeca5"/><path d="m296 144h40v16h-40z" fill="#fdf8ff"/><path d="m250.4592 271.4861c-50.6648.5149-50.2583 40.5129-100.9231 41.0278-21.5019.2185-33.9511-6.8605-45.0322-15.0426a88.0077 88.0077 0 1 0 174.7961-20.6252c-7.69-3.3377-16.86-5.4817-28.8408-5.36z" fill="#fed672"/><path d="m253.1592 263.4868c-30.3867.2813-46.1465 11.8545-60.0508 22.0654-13.6836 10.0494-25.502 18.7286-50.7266 18.962-17.7072.1656-28.976-4.1067-38.0971-9.3894a87.621 87.621 0 0 0 3.8286 19.5425c8.978 3.5113 19.685 5.8515 33.3037 5.8513.3682 0 .74-.002 1.1133-.0054 30.3867-.2813 46.1455-11.8545 60.0488-22.065 13.6846-10.05 25.5029-18.729 50.7285-18.9624a76.2931 76.2931 0 0 1 26.58 4.0272 87.9005 87.9005 0 0 0 -2.6468-17.461 97.57 97.57 0 0 0 -24.0816-2.5652z" fill="#ffeca5"/><path d="m224 304h16v16h-16z" fill="#ffeca5"/><path d="m200 344h16v16h-16z" fill="#ffeca5"/><path d="m152 336h16v16h-16z" fill="#ffeca5"/></g><rect fill="#fa5d3f" height="64" rx="20" width="208" x="280" y="424"/><rect fill="#fed672" height="64" rx="20" width="208" x="280" y="360"/><g><path d="m440 256h-16v-34a22.0248 22.0248 0 0 0 -22-22h-10v-16h10a38.0433 38.0433 0 0 1 38 38z" fill="#d3463d"/><path d="m360 192-11.7771 23.5542a40 40 0 0 0 -4.2229 17.8885v116.5573a10 10 0 0 0 10 10h76a10 10 0 0 0 10-10v-102h-12a20 20 0 0 1 -20-20v-36z" fill="#fa5d3f"/><path d="m370 160h28a10 10 0 0 1 10 10v22a0 0 0 0 1 0 0h-48a0 0 0 0 1 0 0v-22a10 10 0 0 1 10-10z" fill="#fed672"/><path d="m344 280h96v48h-96z" fill="#fff2f0"/></g><g fill="#fed672"><path d="m420 24-9.899 18.101-18.101 9.899 18.101 9.899 9.899 18.101 9.899-18.101 18.101-9.899-18.101-9.899z"/><path d="m460 104-9.899 18.101-18.101 9.899 18.101 9.899 9.899 18.101 9.899-18.101 18.101-9.899-18.101-9.899z"/></g></g></svg>