<svg id="Layer_3" enable-background="new 0 0 64 64" height="512" viewBox="0 0 64 64" width="512"
     xmlns="http://www.w3.org/2000/svg" fill="white">
    <g>
        <path d="m49.259 26.922c5.474-.627 9.741-5.283 9.741-10.922 0-6.065-4.935-11-11-11-5.639 0-10.295 4.267-10.922 9.741-1.613-.475-3.314-.741-5.078-.741-9.925 0-18 8.075-18 18s8.075 18 18 18 18-8.075 18-18c0-1.764-.266-3.465-.741-5.078zm-1.259-19.922c4.962 0 9 4.038 9 9 0 4.77-3.734 8.675-8.431 8.971-1.823-4.282-5.259-7.717-9.54-9.54.296-4.697 4.201-8.431 8.971-8.431zm-16 41c-8.822 0-16-7.178-16-16s7.178-16 16-16 16 7.178 16 16-7.178 16-16 16z"/>
        <path d="m32 18v2c6.617 0 12 5.383 12 12h2c0-7.72-6.28-14-14-14z"/>
        <path d="m54 45c-4.962 0-9 4.038-9 9s4.038 9 9 9 9-4.038 9-9-4.038-9-9-9zm0 16c-3.86 0-7-3.14-7-7s3.14-7 7-7 7 3.14 7 7-3.14 7-7 7z"/>
        <path d="m54 49v2c1.654 0 3 1.346 3 3h2c0-2.757-2.243-5-5-5z"/>
        <path d="m17 10h2c0-2.757-2.243-5-5-5v2c1.654 0 3 1.346 3 3z"/>
        <path d="m14 19c4.962 0 9-4.038 9-9s-4.038-9-9-9-9 4.038-9 9 4.038 9 9 9zm0-16c3.86 0 7 3.14 7 7s-3.14 7-7 7-7-3.14-7-7 3.14-7 7-7z"/>
        <path d="m53 16h2c0-3.86-3.14-7-7-7v2c2.757 0 5 2.243 5 5z"/>
        <path d="m15 53c-2.757 0-5 2.243-5 5s2.243 5 5 5 5-2.243 5-5-2.243-5-5-5zm0 8c-1.654 0-3-1.346-3-3s1.346-3 3-3 3 1.346 3 3-1.346 3-3 3z"/>
        <path d="m6 35c-2.757 0-5 2.243-5 5s2.243 5 5 5 5-2.243 5-5-2.243-5-5-5zm0 8c-1.654 0-3-1.346-3-3s1.346-3 3-3 3 1.346 3 3-1.346 3-3 3z"/>
        <path d="m9 33c2.757 0 5-2.243 5-5s-2.243-5-5-5-5 2.243-5 5 2.243 5 5 5zm0-8c1.654 0 3 1.346 3 3s-1.346 3-3 3-3-1.346-3-3 1.346-3 3-3z"/>
        <path d="m56 31c-2.206 0-4 1.794-4 4s1.794 4 4 4 4-1.794 4-4-1.794-4-4-4zm0 6c-1.103 0-2-.897-2-2s.897-2 2-2 2 .897 2 2-.897 2-2 2z"/>
        <path d="m35 51c-2.206 0-4 1.794-4 4s1.794 4 4 4 4-1.794 4-4-1.794-4-4-4zm0 6c-1.103 0-2-.897-2-2s.897-2 2-2 2 .897 2 2-.897 2-2 2z"/>
        <path d="m32 11c1.654 0 3-1.346 3-3s-1.346-3-3-3-3 1.346-3 3 1.346 3 3 3zm0-4c.551 0 1 .449 1 1s-.449 1-1 1-1-.449-1-1 .449-1 1-1z"/>
        <path d="m11 49c0 1.654 1.346 3 3 3s3-1.346 3-3-1.346-3-3-3-3 1.346-3 3zm3-1c.551 0 1 .449 1 1s-.449 1-1 1-1-.449-1-1 .449-1 1-1z"/>
    </g>
</svg>