<svg id="Layer_1_1_" enable-background="new 0 0 64 64" height="512" viewBox="0 0 64 64" width="512" xmlns="http://www.w3.org/2000/svg"><path d="m57 31h-3.026c.635-.838 1.026-1.87 1.026-3 0-1.641-.806-3.088-2.031-4 1.225-.912 2.031-2.359 2.031-4 0-2.449-1.773-4.483-4.101-4.909.679-.854 1.101-1.919 1.101-3.091 0-1.343-.532-2.564-1.397-3.463.839-.533 1.397-1.471 1.397-2.537 0-1.654-1.346-3-3-3h-33.089c-3.81 0-6.91 3.099-6.91 6.909v.18c0 1.846.718 3.582 2.023 4.887.053.053.111.099.165.15-1.259.356-2.189 1.502-2.189 2.874 0 .768.29 1.469.766 2-.476.531-.766 1.232-.766 2 0 .771.301 1.468.78 2-.479.532-.78 1.229-.78 2 0 .768.29 1.469.766 2-.476.531-.766 1.232-.766 2 0 .352.072.686.184 1h-2.184c-2.757 0-5 2.243-5 5 0 .552.448 1 1 1h1.175l4.375 22.57c.273 1.408 1.512 2.43 2.946 2.43h41.009c1.434 0 2.672-1.022 2.945-2.429l4.375-22.571h1.175c.552 0 1-.448 1-1 0-2.757-2.243-5-5-5zm-45.999-20.911v-.18c0-2.707 2.203-4.909 4.91-4.909h33.089c.551 0 1 .449 1 1 0 .552-.446 1-.994 1h-1.938c-.023 0-.045 0-.068 0h-5-26.01c-1.649 0-2.99 1.343-2.99 3 0 1.654 1.346 3 3 3h30v-2h-30c-.551 0-1-.449-1-1.006 0-.548.444-.994.99-.994h31.063c1.63.029 2.947 1.363 2.947 3 0 1.654-1.346 3-3 3h-31.089c-1.312 0-2.545-.511-3.472-1.438-.928-.928-1.438-2.161-1.438-3.473zm.999 8.911c-.551 0-1-.449-1-1s.449-1 1-1h3.911 31.089 3c1.654 0 3 1.346 3 3s-1.346 3-3 3h-38c-.551 0-1-.449-1-1s.449-1 1-1h35v-2zm-1 11c0-.551.449-1 1-1h35v-2h-35c-.551 0-1-.449-1-1s.449-1 1-1h38c1.654 0 3 1.346 3 3s-1.346 3-3 3h-38c-.551 0-1-.449-1-1zm-4 3h5 38 7c1.304 0 2.416.836 2.829 2h-55.658c.413-1.164 1.525-2 2.829-2zm46.486 26.19c-.091.47-.504.81-.982.81h-41.008c-.478 0-.891-.34-.981-.81l-4.302-22.19h51.575z"/><path d="m16 58c1.654 0 3-1.346 3-3v-13c0-1.654-1.346-3-3-3s-3 1.346-3 3v13c0 1.654 1.346 3 3 3zm-1-16c0-.551.449-1 1-1s1 .449 1 1v13c0 .551-.449 1-1 1s-1-.449-1-1z"/><path d="m24 58c1.654 0 3-1.346 3-3v-13c0-1.654-1.346-3-3-3s-3 1.346-3 3v13c0 1.654 1.346 3 3 3zm-1-16c0-.551.449-1 1-1s1 .449 1 1v13c0 .551-.449 1-1 1s-1-.449-1-1z"/><path d="m32 58c1.654 0 3-1.346 3-3v-13c0-1.654-1.346-3-3-3s-3 1.346-3 3v13c0 1.654 1.346 3 3 3zm-1-16c0-.551.449-1 1-1s1 .449 1 1v13c0 .551-.449 1-1 1s-1-.449-1-1z"/><path d="m40 58c1.654 0 3-1.346 3-3v-13c0-1.654-1.346-3-3-3s-3 1.346-3 3v13c0 1.654 1.346 3 3 3zm-1-16c0-.551.449-1 1-1s1 .449 1 1v13c0 .551-.449 1-1 1s-1-.449-1-1z"/><path d="m48 58c1.654 0 3-1.346 3-3v-13c0-1.654-1.346-3-3-3s-3 1.346-3 3v13c0 1.654 1.346 3 3 3zm-1-16c0-.551.449-1 1-1s1 .449 1 1v13c0 .551-.449 1-1 1s-1-.449-1-1z"/><path d="m58 2h2v2h-2z"/><path d="m60 4h2v2h-2z"/><path d="m56 4h2v2h-2z"/><path d="m58 6h2v2h-2z"/><path d="m56 12h2v2h-2z"/><path d="m58 14h2v2h-2z"/><path d="m54 14h2v2h-2z"/><path d="m56 16h2v2h-2z"/><path d="m6 2h2v2h-2z"/><path d="m8 4h2v2h-2z"/><path d="m4 4h2v2h-2z"/><path d="m6 6h2v2h-2z"/><path d="m4 14h2v2h-2z"/><path d="m6 16h2v2h-2z"/><path d="m2 16h2v2h-2z"/><path d="m4 18h2v2h-2z"/></svg>